<?xml version="1.0" standalone="no"?>
<!DOCTYPE svg PUBLIC "-//W3C//DTD SVG 20010904//EN"
 "http://www.w3.org/TR/2001/REC-SVG-20010904/DTD/svg10.dtd">
<svg version="1.0" xmlns="http://www.w3.org/2000/svg"
 width="89.000000pt" height="89.000000pt" viewBox="0 0 89.000000 89.000000"
 preserveAspectRatio="xMidYMid meet">
<metadata>
Created by potrace 1.14, written by Peter Selinger 2001-2017
</metadata>
<g transform="translate(0.000000,89.000000) scale(0.100000,-0.100000)"
fill="#000000" stroke="none">
<path d="M314 776 c-115 -42 -181 -103 -231 -214 -22 -47 -26 -72 -27 -147 -1
-78 3 -98 27 -149 70 -151 201 -236 362 -236 202 1 374 177 375 386 0 54 -24
149 -40 159 -22 14 -28 -7 -13 -48 22 -61 19 -170 -7 -239 -30 -80 -96 -150
-178 -189 -151 -73 -337 -23 -431 116 -61 89 -79 193 -51 295 27 102 128 206
228 237 61 18 166 18 219 -1 41 -14 62 -8 48 14 -11 17 -111 41 -167 39 -30
-1 -82 -12 -114 -23z"/>
<path d="M628 722 c-77 -75 -81 -81 -83 -126 -1 -43 -6 -52 -64 -110 -55 -56
-70 -86 -42 -86 4 0 35 28 68 61 55 55 65 61 105 63 50 2 70 16 156 108 30 31
51 62 47 67 -3 6 -24 11 -46 11 -39 0 -39 0 -39 39 0 22 -5 43 -10 46 -6 4
-47 -29 -92 -73z m68 -17 c-7 -19 20 -38 46 -32 15 4 4 -12 -37 -53 -49 -49
-65 -60 -92 -60 -30 0 -33 3 -33 30 0 22 13 44 51 85 47 49 78 64 65 30z"/>
<path d="M330 659 c-173 -78 -214 -302 -81 -435 162 -163 447 -47 450 183 1
63 -6 84 -25 76 -12 -4 -14 -15 -9 -44 15 -87 -45 -193 -133 -235 -52 -25
-157 -25 -197 0 -114 74 -156 179 -114 290 34 93 112 147 215 150 67 2 88 11
64 26 -27 17 -122 11 -170 -11z"/>
<path d="M394 547 c-55 -18 -92 -67 -99 -132 -2 -23 19 -72 43 -98 85 -90 235
-27 235 99 0 28 -5 49 -14 54 -21 14 -30 1 -23 -36 19 -100 -98 -162 -172 -93
-72 68 -10 189 89 174 22 -3 37 -1 37 5 0 5 1 13 3 17 4 13 -68 20 -99 10z"/>
</g>
</svg>
